<svg width="2528" height="206" viewBox="0 0 2528 206" fill="none" xmlns="http://www.w3.org/2000/svg">
<g clip-path="url(#clip0_211_22)">
<path d="M197.68 64.88L147.84 206H114.24L64.4 64.88H63.84V206H19.88V6.35998H85.96L132.72 140.48H133.28L180.04 6.35998H244.72V206H198.24V64.88H197.68ZM471.894 206H422.334L406.374 163.16H321.814L305.294 206H257.974L337.494 6.07999H392.094L471.894 206ZM364.934 52.28H364.094L335.814 126.2H392.654L364.934 52.28ZM485.15 6.07999H567.19C598.177 6.07999 622.91 15.1333 641.39 33.24C660.057 51.3467 669.39 75.52 669.39 105.76C669.39 136 660.057 160.267 641.39 178.56C622.91 196.853 598.177 206 567.19 206H485.15V6.07999ZM620.11 105.76C620.11 85.4133 615.537 69.92 606.39 59.28C597.43 48.64 584.364 43.32 567.19 43.32H532.47V168.48H567.19C584.364 168.48 597.43 163.16 606.39 152.52C615.537 141.693 620.11 126.107 620.11 105.76ZM843.738 168.48V206H690.578V6.07999H841.778V43.32H737.898V87H829.458V124.24H737.898V168.48H843.738ZM1089.29 148.32C1089.29 166.987 1082.85 181.267 1069.97 191.16C1057.09 201.053 1038.43 206 1013.97 206H919.052V6.07999H1008.37C1032.64 6.07999 1051.03 10.7467 1063.53 20.08C1076.04 29.4133 1082.29 43.2267 1082.29 61.52C1082.29 70.1067 1079.31 78.5067 1073.33 86.72C1067.36 94.9333 1060.45 100.347 1052.61 102.96C1063.44 106.133 1072.21 111.827 1078.93 120.04C1085.84 128.253 1089.29 137.68 1089.29 148.32ZM966.372 40.52V87.56H1006.41C1016.12 87.56 1023.49 85.6 1028.53 81.68C1033.57 77.5733 1036.09 71.6933 1036.09 64.04C1036.09 56.3867 1033.57 50.6 1028.53 46.68C1023.49 42.5733 1016.21 40.52 1006.69 40.52H966.372ZM1009.77 121.16H966.372V171.56H1009.77C1020.04 171.56 1027.88 169.413 1033.29 165.12C1038.89 160.64 1041.69 154.293 1041.69 146.08C1041.69 138.053 1038.89 131.893 1033.29 127.6C1027.88 123.307 1020.04 121.16 1009.77 121.16ZM1205.5 124.52V206H1156.78V124.52L1078.66 6.07999H1132.7L1181.98 82.52H1182.54L1231.26 6.07999H1283.9L1205.5 124.52ZM1432.08 209.36C1402.96 209.36 1379.63 199.84 1362.08 180.8C1344.54 161.76 1335.76 136.747 1335.76 105.76C1335.76 74.96 1344.91 50.1333 1363.2 31.28C1381.68 12.24 1405.95 2.72 1436 2.72C1460.08 2.72 1479.59 8.69333 1494.52 20.64C1509.64 32.4 1519.63 49.48 1524.48 71.88H1476.32C1474.08 61.24 1469.6 53.3067 1462.88 48.08C1456.16 42.6667 1447.2 39.96 1436 39.96C1419.76 39.96 1407.16 45.7467 1398.2 57.32C1389.43 68.7067 1385.04 84.8533 1385.04 105.76C1385.04 126.853 1389.43 143.187 1398.2 154.76C1407.16 166.333 1419.76 172.12 1436 172.12C1448.32 172.12 1458.31 169.133 1465.96 163.16C1473.62 157 1477.44 149.16 1477.44 139.64V136H1446.36V101.84H1526.44V206H1488.92L1486.12 181.92C1482.76 189.76 1475.86 196.293 1465.4 201.52C1454.95 206.747 1443.84 209.36 1432.08 209.36ZM1708.53 168.48V206H1555.37V6.07999H1706.57V43.32H1602.69V87H1694.25V124.24H1602.69V168.48H1708.53ZM1930.83 206H1881.27L1865.31 163.16H1780.75L1764.23 206H1716.91L1796.43 6.07999H1851.03L1930.83 206ZM1823.87 52.28H1823.03L1794.75 126.2H1851.59L1823.87 52.28ZM1944.08 6.07999H1999.52L2082.12 132.08H2082.68V6.07999H2128.88V206H2083.8L1990.84 64.88H1990.28V206H1944.08V6.07999ZM2313.33 168.48V206H2160.17V6.07999H2311.37V43.32H2207.49V87H2299.05V124.24H2207.49V168.48H2313.33ZM2447.99 124.52V206H2399.27V124.52L2321.15 6.07999H2375.19L2424.47 82.52H2425.03L2473.75 6.07999H2526.39L2447.99 124.52Z" fill="black"/>
</g>
<defs>
<clipPath id="clip0_211_22">
<rect width="2528" height="206" fill="white"/>
</clipPath>
</defs>
</svg>
